PathFileType	4	(X/Y/Z)	OpenSim_Sub08_EMGStiffKnee_Accel.trc
DataRate	CameraRate	NumFrames	NumMarkers	Units	OrigDataRate	OrigDataStartFrame	OrigNumFrames
100	100	41	8	m	100	788	6301
Frame#	Time	torso_imu_offset_imu	pelvis_imu_offset_imu	tibia_r_imu_offset_imu	femur_r_imu_offset_imu	tibia_l_imu_offset_imu	femur_l_imu_offset_imu	toes_r_imu_offset_imu	toes_l_imu_offset_imu
				X1	Y1	Z1	X2	Y2	Z2	X3	Y3	Z3	X4	Y4	Z4	X5	Y5	Z5	X6	Y6	Z6	X7	Y7	Z7	X8		Y8	Z8	

788	7.87000000	8.90390563	0.33062413	6.15091127	8.23165113	-0.22516726	6.22434861	10.37889863	-2.05853161	1.37330652	8.91204861	2.09667838	3.33691859	9.84833290	-0.74699419	-0.82579454	9.43276338	1.82438104	-2.71183694	3.89016781	-6.84486192	10.09240137	5.74912096	0.74506677	10.75441666
789	7.88000000	8.56485337	0.33135897	5.97252620	7.58046574	-0.60153413	6.12901463	9.43339815	-3.10809610	1.94555883	8.51119209	1.46839611	3.48286631	9.50363256	-0.59220911	-0.08149587	9.20959871	2.04208223	-2.66083661	4.57615901	-5.77141172	8.85498405	6.20047846	0.83916743	10.62367292
790	7.89000000	8.40457394	0.36546395	5.75486156	6.98765110	-0.72736655	5.99643564	8.18520975	-3.93374455	1.73294055	8.21582221	1.25449243	3.48022614	9.66779949	-0.42394511	-0.04935634	8.99953985	1.42459109	-2.42651844	4.88989672	-3.82028120	7.96854101	5.69264801	0.45164027	10.67733722
791	7.90000000	8.21974696	0.33591988	5.55351130	6.60750010	-0.96039501	5.90309049	7.71337028	-4.19363403	1.75169538	8.04538440	1.20111657	3.08263017	9.40311080	-0.97006428	0.18871266	9.02263941	0.73428254	-2.17716144	4.39330473	-2.50814914	7.17837562	6.05321839	0.49020679	10.60003558
792	7.91000000	8.02362071	0.43783325	5.37074377	6.58101597	-1.13419255	5.51243071	8.13395915	-4.16616672	2.00095813	7.90814899	0.98682594	2.64288123	9.29587613	-1.23396932	-0.29239354	9.17785703	0.19425513	-1.78542296	3.87939431	-2.58518754	6.44074035	5.24113929	0.38964022	10.99349325
793	7.92000000	7.83016749	0.57231904	5.20893359	6.78724900	-1.39809430	5.20189555	9.12104525	-3.79880233	2.00212640	7.94138942	0.51573214	2.49079438	9.56715271	-0.95837361	-0.13632500	9.46974608	-0.07941882	-1.51153007	3.96672723	-3.09278201	6.43044619	5.40966479	0.78672511	10.80247789
794	7.93000000	7.71752640	0.68582244	5.03581126	7.00280073	-1.42967890	5.02956405	10.11943038	-3.48940833	1.46654232	8.00381396	0.00533228	2.59822943	9.32241961	-0.62319677	-0.44321521	9.58802108	-0.32429732	-1.34154239	4.00151889	-2.98145580	6.75065832	5.69775493	0.51517969	10.60096743
795	7.94000000	7.73216098	0.68154549	4.89462997	7.35847917	-1.63744572	4.92581950	10.74295767	-3.12959641	0.20117247	7.92411136	-0.39094688	2.55336345	9.58778540	-0.22400929	-0.46018748	9.63363774	-0.51429577	-1.21783870	2.10343131	-1.62779390	8.18400318	6.07477858	0.61555786	10.51718848
796	7.95000000	7.95984270	0.66676741	4.77947476	7.63596782	-1.81455809	4.85895875	11.26217344	-2.21107599	-0.49184428	7.65055033	-0.88000515	2.52551507	9.85963842	0.11060002	-0.75498642	9.56129410	-0.60293894	-0.88445180	3.47923191	-4.57978017	8.88082849	5.60515102	0.49471639	10.76279408
797	7.96000000	8.14582366	0.65099435	4.71612970	7.87569925	-1.97467164	4.63922147	11.24717730	-0.96440947	0.95717828	7.47684597	-1.33019579	2.44047756	9.59842737	-0.64722672	-0.55001520	9.45605757	-0.67039037	-0.87423795	5.25936827	-5.88693971	9.83305442	5.69415139	0.72265594	10.72426378
798	7.97000000	8.15601718	0.69048019	4.72629703	7.90338087	-2.05135907	4.47411749	10.37505765	-0.70433432	2.11095664	7.83210273	-1.51725741	2.38031277	9.13819999	-1.59362304	-0.31377533	9.37353595	-0.32333510	-1.04223446	6.08045526	-5.55312873	10.56219022	5.94756616	0.46948289	10.66503078
799	7.98000000	7.90290381	0.72512606	4.81723787	7.82426972	-2.04460364	4.35172256	9.72165215	-1.05055651	2.18690305	8.29367594	-1.50974468	2.32559086	9.23764289	-2.02668344	-0.25781477	9.56921411	-0.15819995	-1.10623936	6.14911213	-4.80668880	10.73283770	5.83268800	0.29009878	10.64283424
800	7.99000000	7.91787197	0.68832306	4.95931050	7.66457400	-2.10542138	4.19853499	10.02746908	-1.56230762	2.13294037	8.64123372	-1.48663860	2.22603550	9.70444891	-1.90827300	-0.02389512	9.86249491	0.02312506	-1.27086776	6.11216585	-4.67075881	10.59201683	6.18105228	0.38342622	10.41707235
801	8	8.20145406	0.55776750	5.15187059	7.37538829	-2.11426351	4.10055893	11.00023888	-2.11193229	1.75017774	8.62436586	-1.57672595	2.12212911	9.65514981	-1.56416038	0.01819241	9.75816687	0.53238240	-1.46832010	6.09124591	-4.10950346	10.20143479	5.28349118	0.25014286	11.01878257
802	8.01000000	8.48032543	0.38882166	5.31811398	7.19388360	-2.17059141	3.91812312	11.83465452	-2.31905906	1.29594214	8.70849295	-1.51065806	2.04509438	9.41465635	-0.96672774	-0.19348975	9.34023132	0.95121256	-1.14860421	6.23610512	-3.92009803	9.90837964	5.69542519	0.56497806	10.87269199
803	8.02000000	8.54457475	0.31311955	5.38317007	7.28996490	-2.04436090	3.62446959	12.06888827	-2.14049152	1.00186189	8.99697252	-1.43034062	2.08524425	9.15950486	-0.34836491	-0.54789163	9.15562455	0.66516671	-0.70993670	6.75926008	-4.21635074	9.36458360	5.81109213	0.85011517	10.72451604
804	8.03000000	8.66481557	0.34958577	5.40219294	7.66308880	-1.89341554	3.37710707	12.15362962	-1.27193797	0.81354244	9.35020258	-1.41864618	2.31251959	9.65674894	-0.45718072	-1.16593206	9.23988783	0.58331154	-0.77291808	7.15406764	-4.27833279	8.89198543	6.00415138	0.97898073	10.50368759
805	8.04000000	8.68351042	0.31691829	5.34328546	8.33827459	-1.59219994	3.26938263	12.31251528	0.19379061	0.71492175	9.48236221	-1.43499367	2.68160224	9.92535912	-0.81999022	-1.71449584	9.22392048	0.63759408	-1.37916951	7.85568436	-4.05840625	8.46214658	5.41797077	1.17609176	10.88971134
806	8.05000000	8.90564784	0.25755818	5.42407840	9.03191217	-1.23311748	3.28766515	12.37289186	1.52148851	0.85015992	9.61493445	-1.36466975	3.04824507	9.63620484	-1.28773935	-1.12814112	9.06236102	0.75003737	-2.33146069	8.73600432	-3.88872065	8.41729880	5.45664719	1.65163431	10.92295062
807	8.06000000	9.06206583	0.11738827	5.49435588	9.66918925	-0.89180499	3.34589396	12.34712903	2.26592098	0.89258445	10.06780924	-1.19521115	3.28899837	9.14247957	-1.92208520	-1.05727966	8.87817125	1.20210447	-3.14806998	9.97224262	-3.97006186	8.31401642	5.80863100	1.15806157	10.57523201
808	8.07000000	9.32742620	0.14229852	5.56470256	10.01738829	-0.48733867	3.35095157	12.23290692	2.24865167	0.76239239	10.24958900	-1.00277822	3.26525562	9.16987500	-2.12023102	-1.22632781	9.15197708	1.69614098	-3.14431414	10.37081723	-3.53340411	8.12988616	5.98564076	0.63979415	10.46519061
809	8.08000000	9.47833729	0.17328505	5.54742223	10.16419613	-0.31824922	2.99337136	11.99772824	1.85279571	0.46113902	10.11586284	-0.99592119	3.08724111	10.03376678	-1.79812222	-1.27807772	9.58269698	1.74203352	-2.67704507	10.96681964	-1.85238285	8.71338513	6.02464139	0.79886807	10.46394377
810	8.09000000	9.47754946	0.10803721	5.52151668	10.23851597	-0.30794074	2.51238011	11.70470447	1.40927826	0.41083817	9.93607583	-0.95008807	3.01994674	10.38825924	-1.84086681	-1.24053361	9.79137472	1.86538753	-2.38364418	12.25289208	-0.25482626	9.57658849	5.31356999	1.11028475	10.99437526
811	8.10000000	9.68767887	0.06401794	5.47935876	10.12516565	-0.64072561	2.18457896	11.63214977	1.33588481	0.37294437	9.86308317	-1.04916167	3.06380940	10.21601670	-1.83644419	-0.95633153	9.81671392	2.35090616	-2.23328572	11.75752130	0.64009030	9.43866850	5.58488895	0.92315896	10.82255687
812	8.11000000	9.78787636	0.08674056	5.53400097	10.36622552	-1.01615201	2.01542517	11.69669463	2.03529532	0.12777344	9.76391330	-1.11970347	3.04948874	9.95341371	-1.78484690	-0.89332508	9.84281093	2.34969518	-2.03453931	10.06331026	1.11167510	8.92300692	5.54929354	0.66610011	10.81241096
813	8.12000000	9.92272845	0.12504377	5.53099419	10.47004047	-1.44009035	1.99520404	11.52073181	3.22057256	0.31422963	9.60349736	-1.26109403	3.15731181	10.18745740	-1.78486074	-0.82123392	9.77750335	2.07847260	-1.85069676	9.77721567	1.88231164	8.92618902	5.79566120	0.41627517	10.60199353
814	8.13000000	9.84730089	0.16169802	5.54803904	10.48094927	-1.90532815	1.78346172	11.18822627	4.21745504	0.59416761	9.57691002	-1.49385871	3.36857850	10.20129702	-1.72342157	-0.47455362	9.45699470	1.58991230	-1.66794242	9.55987456	2.50634588	9.16558522	5.21285395	0.76046875	11.10077287
815	8.14000000	9.76402788	0.11221900	5.57255828	10.59504886	-2.05588951	1.70623766	10.70426864	4.99791144	0.94104907	9.53298817	-1.96710769	3.40924931	9.66820917	-1.87400234	-0.25969603	9.38269263	1.07592829	-1.67934494	9.04398120	2.59645271	8.91039474	5.69901593	0.73170121	10.76851350
816	8.15000000	9.80748505	0.13453988	5.65009423	10.50867717	-2.04051995	1.68522699	10.27792847	5.59329235	1.10985040	9.30744951	-2.61644445	3.39776533	9.47236031	-1.88458806	-0.32726157	9.59173514	0.69123238	-1.83393366	8.43699663	2.50277905	8.46156997	5.66703936	0.18619009	10.62671740
817	8.16000000	9.74102885	0.14034708	5.68270236	10.37106070	-1.82532080	1.84162174	9.85182123	5.60840028	1.14742667	9.14969725	-3.07164695	3.48103896	9.81183192	-1.68728455	-0.48731464	9.72730629	0.72856703	-1.96183715	8.02907921	2.47509086	8.03563989	5.77581577	0.15212554	10.67552813
818	8.17000000	9.68243624	0.08477043	5.70044609	10.16313323	-1.64757723	1.79624586	9.64133418	4.94084745	1.13350919	9.03423840	-3.11934114	3.49713060	10.28549556	-1.74997967	-0.67173564	9.71039362	0.81303927	-1.96328193	7.95816973	2.27665059	7.83681527	5.44677035	0.50391773	10.78216989
819	8.18000000	9.59712445	0.09564066	5.70990846	9.84539382	-1.41122983	1.72964255	9.48184652	4.05520269	1.12075119	8.79131956	-3.21858255	3.14511970	10.05029358	-2.14123122	-0.44722820	9.59195837	1.09698193	-1.80586125	8.32823472	2.27314209	7.80233934	5.16583081	0.84515012	11.15252681
820	8.19000000	9.62441822	0.10042480	5.67059941	9.78012907	-1.23961851	1.73342203	9.28899271	3.02901277	1.24419125	8.60575271	-3.43014252	2.70663165	9.81697153	-2.16965095	-0.56262220	9.72687313	1.42386792	-1.56153067	8.71809572	2.03977109	7.70576921	5.89946588	0.72949704	10.84595155
821	8.20000000	9.55840941	0.15145520	5.68408189	9.64531579	-1.27536206	1.68283600	9.10677344	2.15794179	1.37655103	8.44948036	-3.75786568	2.68331797	9.69918863	-2.35125269	-0.64340207	9.60254792	1.83451365	-1.52048380	9.45269428	1.93712371	7.37333166	5.65750233	0.40295606	10.71473212
822	8.21000000	9.43046706	0.16790500	5.65766029	9.59988250	-1.30083834	1.63025212	8.80447383	1.40125971	1.46222354	8.29016115	-3.87535367	2.57437550	9.96870324	-2.14372720	-0.41509042	9.36716233	1.85519706	-1.58172057	8.61639549	1.23381081	6.49295658	5.95983699	0.80817003	10.63400703
823	8.22000000	9.35717042	0.19740740	5.66203536	9.67778678	-1.22789843	1.66094583	8.68336030	1.04208968	1.32545228	8.21133103	-4.05244208	2.61867466	9.78085937	-2.13764651	-0.97467617	9.40485874	1.75662957	-1.70214391	7.81256588	0.72660662	5.31320171	5.38383031	1.18785692	11.22386443
824	8.23000000	9.29682782	0.23019197	5.62917125	9.72783433	-1.26012345	1.59459915	8.66544695	0.95978778	1.46119420	8.12410896	-3.98810110	2.77837159	9.82322967	-2.35402748	-0.97691913	9.56990319	1.51940414	-1.76162432	7.69132441	0.72490040	4.69089805	5.74705143	0.73899674	10.71251424
825	8.24000000	9.23866779	0.33645510	5.63097608	9.81743898	-1.22961635	1.62733989	8.68179878	0.81414112	1.63131691	8.04704051	-3.89315399	2.73184037	9.77759503	-2.58360291	-1.09607003	9.62096030	1.23150813	-1.89863183	8.20760482	0.67639627	4.25991591	5.96830253	0.78752688	10.83434611
826	8.25000000	9.27888540	0.43305792	5.66459549	9.89798175	-1.17735341	1.69005727	8.58548802	0.59910026	1.52939367	7.96844986	-3.84776612	2.64345130	9.86331873	-3.10998132	-1.07640230	9.85784845	1.06549519	-2.10819759	8.63766250	0.40696372	3.74592026	5.79708682	0.32947896	11.13702157
827	8.26000000	9.29287521	0.47210585	5.62715720	9.87063003	-1.20283934	1.59964561	8.19338834	0.45524766	1.56466897	7.77182309	-3.89020415	2.61754116	10.21477157	-3.70488940	-0.63999743	10.33270265	1.20956076	-2.12113347	8.98956025	-0.00419152	3.25823947	4.91137544	0.32371522	11.50231926
828	8.27000000	9.42665667	0.56577311	5.64637507	9.85283255	-1.31306679	1.52815589	7.68281633	0.30172530	1.37254783	7.64981214	-3.94341346	2.71091766	10.91669653	-3.25300844	0.00571344	10.67604966	1.47944851	-2.13582252	9.56446733	0.05054542	2.99207947	5.49683248	0.23840994	11.20793950
